<svg width="20" height="20" viewBox="0 0 20 20" fill="none" xmlns="http://www.w3.org/2000/svg">
<g clip-path="url(#clip0_25_22219)">
<path d="M20 10C20 15.5228 15.5228 20 10 20C4.47719 20 0 15.5228 0 10C0 10.0023 10 0.00113281 10 0C15.5228 0 20 4.47719 20 10Z" fill="#0052B4"/>
<path d="M9.97314 10.0004H9.99996C9.99996 9.99136 9.99996 9.98267 9.99996 9.97363C9.99103 9.98259 9.98211 9.99152 9.97314 10.0004Z" fill="#F0F0F0"/>
<path d="M9.99975 5.21836C9.99975 3.45879 9.99975 2.30578 9.99975 0.000976562H9.99807C4.476 0.001875 -0.000244141 4.47863 -0.000244141 10.0009H5.21714V7.06297L8.1551 10.0009H9.97303C9.98198 9.99203 9.99088 9.98312 9.99979 9.97418C9.99979 9.30047 9.99979 8.69934 9.99979 8.15637L7.06178 5.21836H9.99975Z" fill="#F0F0F0"/>
<path d="M5.05929 1.30469C3.49526 2.19527 2.19503 3.49551 1.30444 5.05953V10.0004H3.91315V3.91344V3.9134H10.0001C10.0001 3.09063 10.0001 2.3068 10.0001 1.30469H5.05929V1.30469Z" fill="#D80027"/>
<path d="M10.0003 8.77061L6.4475 5.21779H5.21777C5.21777 5.21775 5.21777 5.21779 5.21777 5.21779L10.0003 10.0003H10.0003C10.0003 10.0003 10.0003 9.15248 10.0003 8.77061Z" fill="#D80027"/>
<path d="M6.03132 11.7385L6.58015 12.8861L7.81948 12.5997L7.26448 13.7443L8.26112 14.5346L7.02022 14.8143L7.0237 16.0863L6.03132 15.2905L5.03897 16.0863L5.04245 14.8143L3.80151 14.5346L4.79819 13.7443L4.24312 12.5997L5.48253 12.8861L6.03132 11.7385Z" fill="#F0F0F0"/>
<path d="M14.9725 13.9126L15.247 14.4864L15.8666 14.3431L15.5891 14.9154L16.0875 15.3106L15.467 15.4505L15.4687 16.0865L14.9725 15.6886L14.4764 16.0865L14.4781 15.4505L13.8577 15.3106L14.356 14.9154L14.0785 14.3431L14.6981 14.4864L14.9725 13.9126Z" fill="#F0F0F0"/>
<path d="M12.4196 7.82617L12.694 8.4L13.3137 8.25672L13.0362 8.82902L13.5345 9.22422L12.9141 9.36406L12.9157 10.0001L12.4196 9.60215L11.9234 10.0001L11.9251 9.36406L11.3047 9.22422L11.803 8.82902L11.5255 8.25672L12.1452 8.4L12.4196 7.82617Z" fill="#F0F0F0"/>
<path d="M14.9725 4.3479L15.247 4.92173L15.8666 4.77849L15.5891 5.35079L16.0874 5.74595L15.467 5.88583L15.4687 6.52185L14.9725 6.12392L14.4764 6.52185L14.4781 5.88583L13.8577 5.74595L14.3559 5.35079L14.0785 4.77849L14.6981 4.92173L14.9725 4.3479Z" fill="#F0F0F0"/>
<path d="M17.2018 6.9563L17.4762 7.53013L18.0959 7.38685L17.8184 7.95915L18.3167 8.35435L17.6962 8.49423L17.698 9.1302L17.2018 8.73231L16.7057 9.1302L16.7073 8.49423L16.0869 8.35435L16.5852 7.95915L16.3077 7.38685L16.9274 7.53013L17.2018 6.9563Z" fill="#F0F0F0"/>
<path d="M15.6077 10.0002L15.8235 10.6645H16.522L15.9569 11.0751L16.1728 11.7394L15.6077 11.3288L15.0426 11.7394L15.2584 11.0751L14.6934 10.6645H15.3918L15.6077 10.0002Z" fill="#F0F0F0"/>
</g>
<defs>
<clipPath id="clip0_25_22219">
<rect width="20" height="20" fill="white"/>
</clipPath>
</defs>
</svg>
