<svg width="16" height="16" viewBox="0 0 16 16" fill="none" xmlns="http://www.w3.org/2000/svg">
<g clip-path="url(#clip0_174_3718)">
<path d="M7.99998 9.99992C9.10455 9.99992 9.99998 9.10449 9.99998 7.99992C9.99998 6.89535 9.10455 5.99992 7.99998 5.99992C6.89541 5.99992 5.99998 6.89535 5.99998 7.99992C5.99998 9.10449 6.89541 9.99992 7.99998 9.99992Z" stroke="#344054" stroke-width="1.5" stroke-linecap="round" stroke-linejoin="round"/>
<path d="M12.4848 9.8181C12.4042 10.0009 12.3801 10.2037 12.4157 10.4003C12.4514 10.5969 12.5451 10.7783 12.6848 10.9211L12.7212 10.9575C12.8339 11.0701 12.9233 11.2038 12.9843 11.3509C13.0453 11.4981 13.0767 11.6558 13.0767 11.8151C13.0767 11.9744 13.0453 12.1321 12.9843 12.2792C12.9233 12.4264 12.8339 12.5601 12.7212 12.6726C12.6086 12.7853 12.4749 12.8748 12.3278 12.9357C12.1806 12.9967 12.0229 13.0281 11.8636 13.0281C11.7043 13.0281 11.5466 12.9967 11.3994 12.9357C11.2523 12.8748 11.1186 12.7853 11.006 12.6726L10.9697 12.6363C10.8268 12.4966 10.6454 12.4028 10.4488 12.3672C10.2522 12.3315 10.0494 12.3556 9.86665 12.4363C9.68739 12.5131 9.53452 12.6407 9.42683 12.8033C9.31915 12.9659 9.26136 13.1564 9.26059 13.3514V13.4545C9.26059 13.7759 9.13288 14.0842 8.90556 14.3116C8.67825 14.5389 8.36994 14.6666 8.04846 14.6666C7.72699 14.6666 7.41868 14.5389 7.19137 14.3116C6.96405 14.0842 6.83634 13.7759 6.83634 13.4545V13.3999C6.83165 13.1993 6.76672 13.0048 6.64999 12.8416C6.53325 12.6783 6.37012 12.554 6.1818 12.4848C5.999 12.4041 5.79623 12.38 5.59962 12.4157C5.40302 12.4513 5.2216 12.545 5.07877 12.6848L5.0424 12.7211C4.92983 12.8338 4.79615 12.9232 4.649 12.9842C4.50185 13.0452 4.34412 13.0766 4.18483 13.0766C4.02554 13.0766 3.86781 13.0452 3.72066 12.9842C3.57351 12.9232 3.43983 12.8338 3.32725 12.7211C3.21455 12.6086 3.12515 12.4749 3.06415 12.3277C3.00315 12.1806 2.97175 12.0228 2.97175 11.8636C2.97175 11.7043 3.00315 11.5465 3.06415 11.3994C3.12515 11.2522 3.21455 11.1186 3.32725 11.006L3.36362 10.9696C3.50334 10.8268 3.59706 10.6454 3.63271 10.4488C3.66836 10.2522 3.64429 10.0494 3.56362 9.86659C3.48679 9.68733 3.35923 9.53445 3.19663 9.42677C3.03403 9.31909 2.84349 9.2613 2.64846 9.26052H2.54543C2.22396 9.26052 1.91565 9.13282 1.68834 8.9055C1.46102 8.67819 1.33331 8.36988 1.33331 8.0484C1.33331 7.72693 1.46102 7.41862 1.68834 7.1913C1.91565 6.96399 2.22396 6.83628 2.54543 6.83628H2.59998C2.80058 6.83159 2.99513 6.76666 3.15834 6.64993C3.32155 6.53319 3.44587 6.37006 3.51513 6.18174C3.59581 5.99894 3.61987 5.79617 3.58422 5.59956C3.54858 5.40296 3.45485 5.22154 3.31513 5.07871L3.27877 5.04234C3.16607 4.92977 3.07666 4.79609 3.01566 4.64894C2.95467 4.50179 2.92327 4.34406 2.92327 4.18477C2.92327 4.02548 2.95467 3.86775 3.01566 3.7206C3.07666 3.57345 3.16607 3.43976 3.27877 3.32719C3.39134 3.21449 3.52502 3.12509 3.67217 3.06409C3.81932 3.00309 3.97705 2.97169 4.13634 2.97169C4.29563 2.97169 4.45336 3.00309 4.60051 3.06409C4.74766 3.12509 4.88135 3.21449 4.99392 3.32719L5.03028 3.36356C5.17312 3.50327 5.35453 3.597 5.55114 3.63265C5.74774 3.6683 5.95052 3.64423 6.13331 3.56355H6.1818C6.36105 3.48673 6.51393 3.35916 6.62161 3.19656C6.72929 3.03396 6.78708 2.84343 6.78786 2.6484V2.54537C6.78786 2.2239 6.91556 1.91559 7.14288 1.68827C7.3702 1.46096 7.67851 1.33325 7.99998 1.33325C8.32145 1.33325 8.62976 1.46096 8.85708 1.68827C9.0844 1.91559 9.2121 2.2239 9.2121 2.54537V2.59992C9.21288 2.79494 9.27067 2.98548 9.37835 3.14808C9.48603 3.31068 9.63891 3.43824 9.81816 3.51507C10.001 3.59575 10.2037 3.61981 10.4003 3.58416C10.5969 3.54852 10.7784 3.45479 10.9212 3.31507L10.9576 3.27871C11.0701 3.16601 11.2038 3.0766 11.351 3.0156C11.4981 2.9546 11.6558 2.92321 11.8151 2.92321C11.9744 2.92321 12.1322 2.9546 12.2793 3.0156C12.4265 3.0766 12.5601 3.16601 12.6727 3.27871C12.7854 3.39128 12.8748 3.52496 12.9358 3.67211C12.9968 3.81926 13.0282 3.97699 13.0282 4.13628C13.0282 4.29557 12.9968 4.4533 12.9358 4.60045C12.8748 4.7476 12.7854 4.88128 12.6727 4.99386L12.6363 5.03022C12.4966 5.17306 12.4029 5.35447 12.3673 5.55108C12.3316 5.74768 12.3557 5.95045 12.4363 6.13325V6.18174C12.5132 6.36099 12.6407 6.51387 12.8033 6.62155C12.9659 6.72923 13.1565 6.78702 13.3515 6.7878H13.4545C13.776 6.7878 14.0843 6.9155 14.3116 7.14282C14.5389 7.37014 14.6666 7.67844 14.6666 7.99992C14.6666 8.32139 14.5389 8.6297 14.3116 8.85702C14.0843 9.08433 13.776 9.21204 13.4545 9.21204H13.4C13.205 9.21282 13.0144 9.27061 12.8518 9.37829C12.6892 9.48597 12.5617 9.63885 12.4848 9.8181Z" stroke="#344054" stroke-width="1.5" stroke-linecap="round" stroke-linejoin="round"/>
</g>
<defs>
<clipPath id="clip0_174_3718">
<rect width="16" height="16" fill="white"/>
</clipPath>
</defs>
</svg>
